<svg xmlns="http://www.w3.org/2000/svg" xmlns:xlink="http://www.w3.org/1999/xlink" width="125" zoomAndPan="magnify" viewBox="0 0 375 374.999991" height="125" preserveAspectRatio="xMidYMid meet" version="1.0"><defs><g /></defs><rect x="-37.5" width="450" fill="#ffffff" y="-37.499999" height="449.999989" fill-opacity="1" /><rect x="-37.5" width="450" fill="#ffb96d" y="-37.499999" height="449.999989" fill-opacity="1" /><g fill="#faf6f5" fill-opacity="1"><g transform="translate(26.11038, 170.631399)"><g><path d="M 63.496094 -64.242188 L 117.46875 -130.726562 L 90.203125 -130.726562 L 36.601562 -64.804688 L 36.601562 -130.726562 L 14.753906 -130.726562 L 14.753906 0 L 36.601562 0 L 36.601562 -35.855469 L 48.929688 -49.675781 L 89.265625 0 L 117.839844 0 Z M 63.496094 -64.242188 " /></g></g></g><g fill="#faf6f5" fill-opacity="1"><g transform="translate(139.272527, 170.631399)"><g><path d="M 59.199219 -35.484375 C 85.90625 -35.484375 107.757812 -57.332031 107.757812 -84.039062 C 107.757812 -110.742188 85.90625 -132.59375 59.199219 -132.59375 C 32.496094 -132.59375 10.644531 -110.742188 10.644531 -84.039062 C 10.644531 -57.332031 32.496094 -35.484375 59.199219 -35.484375 Z M 59.199219 -110.929688 C 74.140625 -110.929688 86.09375 -98.980469 86.09375 -84.039062 C 86.09375 -69.097656 74.140625 -57.144531 59.199219 -57.144531 C 44.261719 -57.144531 32.308594 -69.097656 32.308594 -84.039062 C 32.308594 -98.980469 44.261719 -110.929688 59.199219 -110.929688 Z M 101.78125 0 L 101.78125 -21.664062 L 15.5 -21.664062 L 15.5 0 Z M 101.78125 0 " /></g></g></g><g fill="#faf6f5" fill-opacity="1"><g transform="translate(26.198225, 319.617053)"><g><path d="M 120.082031 -130.726562 L 93.375 -130.726562 L 60.132812 -84.039062 L 26.707031 -130.726562 L 0 -130.726562 L 49.117188 -61.816406 L 49.117188 0 L 70.964844 0 L 70.964844 -61.816406 Z M 120.082031 -130.726562 " /></g></g></g><g fill="#faf6f5" fill-opacity="1"><g transform="translate(139.173638, 319.617053)"><g><path d="M 59.199219 -35.484375 C 85.90625 -35.484375 107.757812 -57.332031 107.757812 -84.039062 C 107.757812 -110.742188 85.90625 -132.59375 59.199219 -132.59375 C 32.496094 -132.59375 10.644531 -110.742188 10.644531 -84.039062 C 10.644531 -57.332031 32.496094 -35.484375 59.199219 -35.484375 Z M 59.199219 -110.929688 C 74.140625 -110.929688 86.09375 -98.980469 86.09375 -84.039062 C 86.09375 -69.097656 74.140625 -57.144531 59.199219 -57.144531 C 44.261719 -57.144531 32.308594 -69.097656 32.308594 -84.039062 C 32.308594 -98.980469 44.261719 -110.929688 59.199219 -110.929688 Z M 101.78125 0 L 101.78125 -21.664062 L 15.5 -21.664062 L 15.5 0 Z M 101.78125 0 " /></g></g></g><g fill="#faf6f5" fill-opacity="1"><g transform="translate(272.522421, 116.908183)"><g><path d="M 13.03125 5.03125 L 13.03125 9.78125 L 9.6875 9.78125 L 9.6875 5.03125 L 0 5.03125 L 0 1.34375 L 23.46875 1.34375 L 23.46875 11.09375 L 20.109375 11.09375 L 20.109375 5.03125 Z M 13.03125 5.03125 " /></g></g></g><g fill="#faf6f5" fill-opacity="1"><g transform="translate(272.522421, 129.677265)"><g><path d="M 23.46875 1.34375 L 23.46875 5.03125 L 0 5.03125 L 0 1.34375 Z M 23.46875 1.34375 " /></g></g></g><g fill="#faf6f5" fill-opacity="1"><g transform="translate(272.522421, 137.285349)"><g><path d="M 17 4.625 L 0 4.625 L 0 1.3125 L 23.46875 1.3125 L 23.46875 5.9375 L 9.421875 9.71875 L 23.46875 9.71875 L 23.46875 13 L 0 13 L 0 9.21875 Z M 17 4.625 " /></g></g></g><g fill="#faf6f5" fill-opacity="1"><g transform="translate(272.522421, 152.836016)"><g><path d="M 23.46875 1.34375 L 23.46875 7.171875 C 23.46875 9.023438 22.972656 10.40625 21.984375 11.3125 C 21.003906 12.21875 19.5625 12.671875 17.65625 12.671875 L 5.796875 12.671875 C 3.898438 12.671875 2.457031 12.21875 1.46875 11.3125 C 0.488281 10.40625 0 9.023438 0 7.171875 L 0 1.34375 Z M 20.109375 5.03125 L 3.359375 5.03125 L 3.359375 7.109375 C 3.359375 7.691406 3.523438 8.148438 3.859375 8.484375 C 4.191406 8.816406 4.78125 8.984375 5.625 8.984375 L 17.828125 8.984375 C 18.679688 8.984375 19.273438 8.816406 19.609375 8.484375 C 19.941406 8.148438 20.109375 7.691406 20.109375 7.109375 Z M 20.109375 5.03125 " /></g></g></g><g fill="#faf6f5" fill-opacity="1"><g transform="translate(272.522421, 167.749929)"><g /></g></g><g fill="#faf6f5" fill-opacity="1"><g transform="translate(272.522421, 174.185054)"><g><path d="M 7.78125 4.796875 L 23.46875 0.140625 L 23.46875 3.984375 L 12.765625 6.796875 L 23.46875 9.625 L 23.46875 13.140625 L 7.78125 8.484375 L 0 8.484375 L 0 4.796875 Z M 7.78125 4.796875 " /></g></g></g><g fill="#faf6f5" fill-opacity="1"><g transform="translate(272.522421, 188.696823)"><g><path d="M 5.390625 4.71875 C 4.546875 4.71875 3.945312 4.890625 3.59375 5.234375 C 3.25 5.585938 3.078125 6.054688 3.078125 6.640625 C 3.078125 7.210938 3.25 7.671875 3.59375 8.015625 C 3.945312 8.367188 4.546875 8.546875 5.390625 8.546875 L 18.0625 8.546875 C 18.914062 8.546875 19.515625 8.367188 19.859375 8.015625 C 20.203125 7.671875 20.375 7.210938 20.375 6.640625 C 20.375 6.054688 20.203125 5.585938 19.859375 5.234375 C 19.515625 4.890625 18.914062 4.71875 18.0625 4.71875 Z M 17.828125 1.03125 C 19.722656 1.03125 21.179688 1.507812 22.203125 2.46875 C 23.222656 3.4375 23.734375 4.828125 23.734375 6.640625 C 23.734375 8.441406 23.222656 9.820312 22.203125 10.78125 C 21.179688 11.75 19.722656 12.234375 17.828125 12.234375 L 5.625 12.234375 C 3.726562 12.234375 2.269531 11.75 1.25 10.78125 C 0.238281 9.820312 -0.265625 8.441406 -0.265625 6.640625 C -0.265625 4.828125 0.238281 3.4375 1.25 2.46875 C 2.269531 1.507812 3.726562 1.03125 5.625 1.03125 Z M 17.828125 1.03125 " /></g></g></g><g fill="#faf6f5" fill-opacity="1"><g transform="translate(272.522421, 203.208591)"><g><path d="M 23.46875 4.859375 L 5.359375 4.859375 C 4.515625 4.859375 3.921875 5.03125 3.578125 5.375 C 3.242188 5.726562 3.078125 6.191406 3.078125 6.765625 C 3.078125 7.347656 3.242188 7.8125 3.578125 8.15625 C 3.921875 8.507812 4.515625 8.6875 5.359375 8.6875 L 23.46875 8.6875 L 23.46875 12.171875 L 5.59375 12.171875 C 3.695312 12.171875 2.238281 11.707031 1.21875 10.78125 C 0.207031 9.851562 -0.296875 8.484375 -0.296875 6.671875 C -0.296875 4.859375 0.207031 3.488281 1.21875 2.5625 C 2.238281 1.632812 3.695312 1.171875 5.59375 1.171875 L 23.46875 1.171875 Z M 23.46875 4.859375 " /></g></g></g><g fill="#faf6f5" fill-opacity="1"><g transform="translate(272.522421, 217.787385)"><g><path d="M 0 9.046875 C 0.15625 9.003906 0.300781 8.957031 0.4375 8.90625 C 0.570312 8.863281 0.738281 8.828125 0.9375 8.796875 C 1.132812 8.765625 1.390625 8.742188 1.703125 8.734375 C 2.015625 8.722656 2.40625 8.71875 2.875 8.71875 L 6.5625 8.71875 C 7.664062 8.71875 8.4375 8.523438 8.875 8.140625 C 9.320312 7.765625 9.546875 7.148438 9.546875 6.296875 L 9.546875 5.03125 L 0 5.03125 L 0 1.34375 L 23.46875 1.34375 L 23.46875 6.90625 C 23.46875 8.820312 23.019531 10.210938 22.125 11.078125 C 21.226562 11.941406 19.875 12.375 18.0625 12.375 L 16.21875 12.375 C 13.8125 12.375 12.226562 11.566406 11.46875 9.953125 C 11.082031 10.890625 10.457031 11.53125 9.59375 11.875 C 8.738281 12.226562 7.695312 12.40625 6.46875 12.40625 L 2.84375 12.40625 C 2.269531 12.40625 1.765625 12.425781 1.328125 12.46875 C 0.890625 12.507812 0.445312 12.617188 0 12.796875 Z M 20.109375 5.03125 L 12.90625 5.03125 L 12.90625 6.46875 C 12.90625 7.15625 13.082031 7.695312 13.4375 8.09375 C 13.789062 8.488281 14.441406 8.6875 15.390625 8.6875 L 17.703125 8.6875 C 18.546875 8.6875 19.15625 8.535156 19.53125 8.234375 C 19.914062 7.929688 20.109375 7.453125 20.109375 6.796875 Z M 20.109375 5.03125 " /></g></g></g><g fill="#faf6f5" fill-opacity="1"><g transform="translate(272.522421, 232.500221)"><g /></g></g><g fill="#faf6f5" fill-opacity="1"><g transform="translate(272.522421, 238.935351)"><g><path d="M 13.03125 5.03125 L 13.03125 9.78125 L 9.6875 9.78125 L 9.6875 5.03125 L 0 5.03125 L 0 1.34375 L 23.46875 1.34375 L 23.46875 11.09375 L 20.109375 11.09375 L 20.109375 5.03125 Z M 13.03125 5.03125 " /></g></g></g><g fill="#faf6f5" fill-opacity="1"><g transform="translate(272.522421, 251.704438)"><g><path d="M 23.46875 4.859375 L 5.359375 4.859375 C 4.515625 4.859375 3.921875 5.03125 3.578125 5.375 C 3.242188 5.726562 3.078125 6.191406 3.078125 6.765625 C 3.078125 7.347656 3.242188 7.8125 3.578125 8.15625 C 3.921875 8.507812 4.515625 8.6875 5.359375 8.6875 L 23.46875 8.6875 L 23.46875 12.171875 L 5.59375 12.171875 C 3.695312 12.171875 2.238281 11.707031 1.21875 10.78125 C 0.207031 9.851562 -0.296875 8.484375 -0.296875 6.671875 C -0.296875 4.859375 0.207031 3.488281 1.21875 2.5625 C 2.238281 1.632812 3.695312 1.171875 5.59375 1.171875 L 23.46875 1.171875 Z M 23.46875 4.859375 " /></g></g></g><g fill="#faf6f5" fill-opacity="1"><g transform="translate(272.522421, 266.283232)"><g><path d="M 23.46875 0.328125 L 23.46875 11.734375 L 20.109375 11.734375 L 20.109375 7.875 L 0 7.875 L 0 4.1875 L 20.109375 4.1875 L 20.109375 0.328125 Z M 23.46875 0.328125 " /></g></g></g><g fill="#faf6f5" fill-opacity="1"><g transform="translate(272.522421, 279.588526)"><g><path d="M 23.46875 4.859375 L 5.359375 4.859375 C 4.515625 4.859375 3.921875 5.03125 3.578125 5.375 C 3.242188 5.726562 3.078125 6.191406 3.078125 6.765625 C 3.078125 7.347656 3.242188 7.8125 3.578125 8.15625 C 3.921875 8.507812 4.515625 8.6875 5.359375 8.6875 L 23.46875 8.6875 L 23.46875 12.171875 L 5.59375 12.171875 C 3.695312 12.171875 2.238281 11.707031 1.21875 10.78125 C 0.207031 9.851562 -0.296875 8.484375 -0.296875 6.671875 C -0.296875 4.859375 0.207031 3.488281 1.21875 2.5625 C 2.238281 1.632812 3.695312 1.171875 5.59375 1.171875 L 23.46875 1.171875 Z M 23.46875 4.859375 " /></g></g></g><g fill="#faf6f5" fill-opacity="1"><g transform="translate(272.522421, 294.167321)"><g><path d="M 0 9.046875 C 0.15625 9.003906 0.300781 8.957031 0.4375 8.90625 C 0.570312 8.863281 0.738281 8.828125 0.9375 8.796875 C 1.132812 8.765625 1.390625 8.742188 1.703125 8.734375 C 2.015625 8.722656 2.40625 8.71875 2.875 8.71875 L 6.5625 8.71875 C 7.664062 8.71875 8.4375 8.523438 8.875 8.140625 C 9.320312 7.765625 9.546875 7.148438 9.546875 6.296875 L 9.546875 5.03125 L 0 5.03125 L 0 1.34375 L 23.46875 1.34375 L 23.46875 6.90625 C 23.46875 8.820312 23.019531 10.210938 22.125 11.078125 C 21.226562 11.941406 19.875 12.375 18.0625 12.375 L 16.21875 12.375 C 13.8125 12.375 12.226562 11.566406 11.46875 9.953125 C 11.082031 10.890625 10.457031 11.53125 9.59375 11.875 C 8.738281 12.226562 7.695312 12.40625 6.46875 12.40625 L 2.84375 12.40625 C 2.269531 12.40625 1.765625 12.425781 1.328125 12.46875 C 0.890625 12.507812 0.445312 12.617188 0 12.796875 Z M 20.109375 5.03125 L 12.90625 5.03125 L 12.90625 6.46875 C 12.90625 7.15625 13.082031 7.695312 13.4375 8.09375 C 13.789062 8.488281 14.441406 8.6875 15.390625 8.6875 L 17.703125 8.6875 C 18.546875 8.6875 19.15625 8.535156 19.53125 8.234375 C 19.914062 7.929688 20.109375 7.453125 20.109375 6.796875 Z M 20.109375 5.03125 " /></g></g></g><g fill="#faf6f5" fill-opacity="1"><g transform="translate(272.522421, 308.880156)"><g><path d="M 13.578125 5.03125 L 13.578125 10.09375 L 10.21875 10.09375 L 10.21875 5.03125 L 3.359375 5.03125 L 3.359375 11.390625 L 0 11.390625 L 0 1.34375 L 23.46875 1.34375 L 23.46875 11.390625 L 20.109375 11.390625 L 20.109375 5.03125 Z M 13.578125 5.03125 " /></g></g></g></svg>